/* XPM */
static char *cherrytree[] = {
/* columns rows colors chars-per-pixel */
"48 48 253 2 ",
"   c #3B3B3E3E0101",
".  c #4D4D02020202",
"X  c #5518027B027B",
"o  c #5B68036A036A",
"O  c #56560C0C055B",
"+  c #5BB60C0C0C0C",
"@  c #4F4F18180101",
"#  c #53D417170283",
"$  c #515012121212",
"%  c #5D1D11911191",
"&  c #5E5E18181818",
"*  c #6464038F038F",
"=  c #6A45043B043B",
"-  c #6CEC09090909",
";  c #751F03E703E7",
":  c #7B9503500350",
">  c #72C809080908",
",  c #7C7B0B0B0B0B",
"<  c #66BB1BC61BC6",
"1  c #69681F1F1F1F",
"2  c #7C48137A137A",
"3  c #434324240101",
"4  c #504F24230404",
"5  c #43C33E3E0202",
"6  c #616129290202",
"7  c #727222220303",
"8  c #646327271E1E",
"9  c #5E5D35353535",
"0  c #62E321212121",
"q  c #6C6C23232323",
"w  c #6B6B2D2D2D2D",
"e  c #71702BAC2BAC",
"r  c #6BEB35B635B6",
"t  c #777636363636",
"y  c #2E2E4F4F0000",
"u  c #388E479D0101",
"i  c #2B4D5465018A",
"p  c #2D1D5ADA0182",
"a  c #2F2E58580808",
"s  c #313155AB0101",
"d  c #30C35E140396",
"f  c #327F5C8F0A8A",
"g  c #36355E5D1010",
"h  c #39395A5A1010",
"j  c #2F2F60600101",
"k  c #3276635203BF",
"l  c #383862620202",
"z  c #358B69BF02AD",
"x  c #388E6EC404AF",
"c  c #365663C30ACA",
"v  c #383866660A0A",
"b  c #3C7C6CEC0CCC",
"n  c #3BBC74740586",
"m  c #3ED87B48049E",
"M  c #3EBE72710A09",
"N  c #3B7B65A511D2",
"B  c #3E3D68671313",
"V  c #41417D7D0707",
"C  c #40C174F40C8C",
"Z  c #42757D160A71",
"A  c #403F6B6B1515",
"S  c #595856552A2A",
"D  c #44436A6A2020",
"F  c #4AF5727223CE",
"G  c #4C4C70F02929",
"H  c #525177F72CAD",
"J  c #555478773535",
"K  c #5CB27E7D3BE6",
"L  c #6F6F49494949",
"P  c #6F6F5F5F4141",
"I  c #79CF53FE53FE",
"U  c #860800B900B9",
"Y  c #8C1A01DC01D4",
"T  c #85DB0A600606",
"R  c #8D680B9E0B9E",
"E  c #93DD02DB02DB",
"W  c #9B9B041E041E",
"Q  c #92120A8B0788",
"!  c #9BDB0ACB0ACB",
"~  c #828217170404",
"^  c #883215151515",
"/  c #929213691369",
"(  c #9B9B13BE13BE",
")  c #95701AAD1AAD",
"_  c #9D1D1B1B1B1B",
"`  c #A44205860586",
"'  c #AD1106AE06AE",
"]  c #A34D0A0A0A0A",
"[  c #ABEB08C908C9",
"{  c #B4BD08E708E7",
"}  c #BBE809BC09BC",
"|  c #AB5512BD12BD",
" . c #A3F9186E186E",
".. c #AB001A1A1A1A",
"X. c #B20711BC11BC",
"o. c #B70C19C419C4",
"O. c #BC661D1D1D1D",
"+. c #99D923632363",
"@. c #9C9C2CAD2CAD",
"#. c #A4A421CC21CC",
"$. c #A1F72B812B81",
"%. c #ABAB28682868",
"&. c #B3B323CE23CE",
"*. c #BB1023CE23CE",
"=. c #B2322AAB2AAB",
"-. c #BB3B2F2F2F2F",
";. c #A5A536B736B7",
":. c #A9423A6D3A6D",
">. c #B63633333333",
",. c #BCBC32DD32DD",
"<. c #B3F33BFC3BFC",
"1. c #BBBB3C3C3C3C",
"2. c #C3AE0B610B61",
"3. c #CBCB0C8D0C8D",
"4. c #D2D20E0E0E0E",
"5. c #CDCD14141414",
"6. c #C5C51C1C1C1C",
"7. c #CB4B21212121",
"8. c #C70629AA29AA",
"9. c #D37D27272727",
"0. c #C4C432883288",
"q. c #C2C23C923C92",
"w. c #CB4B3A903A90",
"e. c #D35334B534B5",
"r. c #828244444444",
"t. c #87874F4F4F4F",
"y. c #898951515151",
"u. c #AA2A42424242",
"i. c #AB554CA24CA2",
"p. c #B35D44EF44EF",
"a. c #BB104B4B4B4B",
"s. c #B4B454AA54AA",
"d. c #BABA54545454",
"f. c #B60B5D075D07",
"g. c #BC3C59595959",
"h. c #848361E261E2",
"j. c #85856CED6CED",
"k. c #999967676767",
"l. c #9F1E72727272",
"z. c #B9B963E463E4",
"x. c #BB106C166C16",
"c. c #A42378787878",
"v. c #C61B41414141",
"b. c #C4C44DCE4DCE",
"n. c #CCCC4ACA4ACA",
"m. c #D17B41EC41EC",
"M. c #D2D24B4B4B4B",
"N. c #CACA51D251D2",
"B. c #C34358D958D9",
"V. c #CC655BF55BF5",
"C. c #D2D253ED53ED",
"Z. c #D5545D5D5D5D",
"A. c #C30263A363A3",
"S. c #CA4A64E564E5",
"D. c #C46E6B6B6B6B",
"F. c #CC766B156B15",
"G. c #D0D062E362E3",
"H. c #D4D46BC16BC1",
"J. c #CC2176207620",
"K. c #C5F878787878",
"L. c #D2D271F271F2",
"P. c #D3537CFD7CFD",
"I. c #D8D87F7F7F7F",
"U. c #444485DB06B1",
"Y. c #499E8DE20707",
"T. c #45BA83E009C4",
"R. c #489D85DA0E0E",
"E. c #4A168BF20A1B",
"W. c #4B7E93C60606",
"Q. c #4E21944809DD",
"!. c #4F4F99990808",
"~. c #50B796FD0C0C",
"^. c #51FC9C3509B4",
"/. c #55D6A48A0970",
"(. c #5858A5A50C0C",
"). c #5757A8A80A0A",
"_. c #5858A9A90A0A",
"`. c #5F5F80804141",
"'. c #636383C34404",
"]. c #6A6A8A8A4B0B",
"[. c #6D6C8B8B5151",
"{. c #70F08F0F53D4",
"}. c #7E7E97976565",
"|. c #7EFF991966E7",
" X c #82829D9D6767",
".X c #832D9B9A6B6B",
"XX c #88889F9F7171",
"oX c #8C36A4FA7373",
"OX c #9111A7A77AFB",
"+X c gray55",
"@X c #929284848484",
"#X c #991995159515",
"$X c #9D369D369D36",
"%X c #AB2B83038303",
"&X c #A85298EE98EE",
"*X c #B8B896969696",
"=X c #BE3E9E9E9E9E",
"-X c #9999AFAF8383",
";X c #9C9CB1B18787",
":X c #9E9EB2B28B0B",
">X c #A1A1B3B38F8F",
",X c #A5E5B8F89393",
"<X c #AD13BE8B9C02",
"1X c #A650A617A617",
"2X c #A9A9A2A2A2A2",
"3X c #AC92AC92AC92",
"4X c #B3B3AEAEAEAE",
"5X c #AFAFBEBEA1A1",
"6X c #B434B434B434",
"7X c #BC43BC43BC43",
"8X c #C64682828282",
"9X c #CDCD84448444",
"0X c #CDCD8D8D8D8D",
"qX c #D35384038403",
"wX c #D52A8B8B8B8B",
"eX c #D62B94EA94EA",
"rX c #D9D990909090",
"tX c #D3D399199919",
"yX c #C61BAA54AA54",
"uX c #DB5BA323A323",
"iX c #D3D3BEBEBEBE",
"pX c #AFAFC1C19E9E",
"aX c #B7B7C7C7A8A8",
"sX c #B8B8C6C6A9A9",
"dX c #BABAC91EABAB",
"fX c #BF14CBCBB25C",
"gX c #C0C0CD4DB433",
"hX c #C693D238BB21",
"jX c #C9C9D5D5BEBE",
"kX c #C3E1C3E1C3E1",
"lX c #CC0BCC0BCC0B",
"zX c #DB30CB75CB75",
"xX c #CD77D7D7C318",
"cX c #D49CD49CD49C",
"vX c #D8D8D7D7D7D7",
"bX c #DC5CDC5CDC5C",
"nX c #E4E4D8D8D8D8",
"mX c #D7D7E0E0CFCF",
"MX c #DC5BE3E3D494",
"NX c #DFDFE5E5D9D9",
"BX c #E161E767DA5A",
"VX c #E5E5EAEADFDF",
"CX c #E42AE42AE42A",
"ZX c #ED6DE565E565",
"AX c #EAAAEEAEE666",
"SX c #EC41EC65EC10",
"DX c #F373EDEDEDED",
"FX c #ECECF0F0E969",
"GX c #F171F473EEAE",
"HX c #F4BDF4FDF46A",
"JX c #F8F8F5F5F5F5",
"KX c #F7A1F94EF5F5",
"LX c #FFE3FFE4FFE0",
/* pixels */
"LXLXLXLXLXLXLXLXLXLXLXLXLXLXLXLXLXLXLXLXLXLXLXLXLXLXLXAXgX,X;X;X<XxXGXLXLXLXLXLXLXLXLXLXLXLXLXLX",
"LXLXLXLXLXLXLXLXLXLXLXLXLXLXLXLXLXLXLXLXLXLXLXLXLXBX[.z R.E.E.E.R.m c F oXjXKXNXLXLXLXLXLXLXLXLX",
"LXLXLXLXLXLXLXLXLXLXLXLXLXLXLXLXLXLXpXoXaXhXhX<X'.x Q.(.!.!.!.!.^./.)./.Q.M d p >XLXLXLXLXLXLXLX",
"LXLXLXLXLXLXLXLXLXLXLXLXLXLXLXLXLXLXdXc d T.T.E.^./.Y.V T.E.~.~.~.Q.U.m x i j d g FXLXLXLXLXLXLX",
"LXLXLXLXLXLXLXLXLXLXLXLXLXLXLXLXLXLXLXFX[.C ^._.U.x n V T.Q.!.~.Q.n p i i k z Y.H HXLXLXLXLXLXLX",
"LXLXLXLXLXLXLXLXLXLXLXLXLXLXLXLXLXLXLXLXLXfXB U./.U.n m V T.Z z i p j i i a U.).U.F MXLXLXLXLXLX",
"LXLXLXLXLXLXLXLXLXLXLXLXLXLXLXLXLXLXLXLXLXLXHXXXz Y./.U.x j i d p i k i p '.E.W.^.W.b OXKXLXLXLX",
"LXLXLXLXLXLXLXLXLXLXLXLXLXLXLXLXLXLXLXLXLXLXLXLXNXK M m i j d p b B }.f f dXR.^.E.Q.(.Z F VXLXLX",
"LXLXLXLXLXLXLXLXLXLXLXLXLXLXLXLXLXLXLXLXLXLXLXLXLXAXG d k i k N -XHXN d OXGXb /.E.~.Q.^.Q.A KXLX",
"LXLXLXLXLXLXLXLXLXLXLXLXLXLXLXLXLXLXLXLXLXLXLXLXsXa k f '.<XxXLXLXfXf a FXLX].Q.~.~.(.Q.^.R.aXLX",
"LXLXLXLXLXLXLXLXLXLXLXLXLXLXLXLXLXLXLXLXLXLXLX}.f k g fXLXLXLXLXLXK d {.LXLXMXb (.E.Q.~.!.Y.,XLX",
"LXLXLXLXLXLXLXLXLXLXLXLXLXLXLXLXLXLXLXLXLXKX'.c v '.GXLXLXLXLXLXGXa f hXLXLXLX XR.!.T.E.^.R.dXLX",
"LXLXLXLXLXLXLXLXLXLXLXLXLXLXLXLXLXLXLXLXKXJ k f XXLXLXLXLXLXLXLX<Xf g LXLXLXLXKXH W.Y.m /.M AXLX",
"LXLXLXLXLXLXLXLXLXLXLXLXLXLXLXLXLXLXLXKX`.v a >XLXLXLXLXLXLXLXLX`.d }.LXLXLXLXLXBXN !.T./.B LXLX",
"LXLXLXLXLXLXLXLXLXiXy.< + + < r.yXLXLX[.v d :XLXLXLXLXLXLXLXLXKXa c gXLXLXLXLXLXLXMXb /.Q.{.LXLX",
"LXLXLXLXLXLXLXZXt + ^ R Q Q U : * O S c v .XLXLXLXLXLXLXLXLXLXhXv a HXLXLXLXLXLXLXLXhXb Z ,XLXLX",
"LXLXLXLXLXLXZX% 2 Y @.f.z.p.#.; U 6 s m h JXLXLXLXLXLXLXLXLXLX.Xk G LXLXLXLXLXLXLXLXLXsXd mXLXLX",
"LXLXLXLXLXJX< 2 R s.K.9XeXwXA.2   i W.l 4 1 nXLXLXLXLXLXLXLXLXD z |.LXLXLXLXLXLXLXLXLXLXpXKXLXLX",
"LXLXLXLXLXl.- T u.f.D.9XeXuXqXb.O u s i 7 T o zXLXLXLXLXLXLXAXa b 5XLXLXLXLXLXLXLXLXLXLXLXLXLXLX",
"LXLXLXLXDXo Y +.u.s.A.J.qXrXrXH.<.= @ 4 3 T E O c.t.e q e t P b N xXLXLXLXLXLXLXLXLXLXLXLXLXLXLX",
"LXLXLXLX%X= Y +.;.p.g.S.J.qXI.L.C.0.' ` [ [ = X = : U U U U 5 m y 8 c.DXLXLXLXLXLXLXLXLXLXLXLXLX",
"LXLXLXLXq U Y ) $.<.a.B.S.H.H.H.Z.w.6.{ ! o 2 R / +.) Q X Q y W.s T , o k.JXLXLXLXLXLXLXLXLXLXLX",
"LXLXLXLXX Y U Q _ %.<.b.N.V.Z.Z.M.w.O.] X ^ / x.K.K.d.<.# u d W.s ~ ` ` , + iXLXLXLXLXLXLXLXLXLX",
"LXLXLXzXo E U Y (  .=.>.q.n.n.M.m.,...* 2 ) x.8XtXuX9XA.;.O 5 y u @ E ' ` W o *XLXLXLXLXLXLXLXLX",
"LXLXLXyX- E U Y E ] ..&.-.0.w.q.-.%.R o T i.x.K.0XtXeXP.A.<.2 * = ! { } { ' ` o iXLXLXLXLXLXLXLX",
"LXLXLX=X= Q U Y E W ` | o.*.&.&.#.) * , ) i.f.x.K.9XwX9XL.V.v.8.} 2.2.} } { ' ` + LXLXLXLXLXLXLX",
"LXLXLXyX= E U Y E E W ` [ X...( / T X T +.:.i.z.D.J.P.P.L.G.N.w.7.2.2.2.2.} { ' > %XLXLXLXLXLXLX",
"LXLXLXzXo E U U E E E ` [ ] W Q T ; X Y ) @.:.i.f.A.D.F.F.G.C.m.9.5.4.3.2.} } ' ] q LXLXLXLXLXLX",
"LXLXKXCXo E Y U Y E E ` ` W Q Y : * * Y R ) @.:.p.d.B.V.V.V.M.m.e.9.4.3.2.2.} ' { + LXLXLXLXLXLX",
"LXLXDXbXt U E U U Y E W W Q Y : ; o * Y U R ) $.:.<.a.a.N.n.n.m.e.9.4.3.2.} } { } X LXLXLXLXLXLX",
"LXLXSXbX&Xo ` Y U Y E E W Y U : ; o * E U U Q ( #.=.>.1.q.q.w.w.0.7.5.2.2.} } ' } O LXLXLXLXLXLX",
"LXLXDXvXkXw : ` Y U Y Y E Y : ; = o o E U U U Q /  .%.=.,.,.0.8.7.6.2.2.} { ' ' { + LXLXLXLXLXLX",
"LXLXGXbXlX4X% : ` W Y Y Y U : ; = o X E Y U U Y Y W |  .o.&.*.O.6.o.} } { { ' ' W r.LXLXLXLXLXLX",
"LXLXLXCXcXkX2X0 * E ' W Y U : ; ; ; X E Y U U Y Y E W ` ] [ X.X.{ { { { { ' ' } > =XLXLXLXLXLXLX",
"LXLXLXDXCXlX7X3Xj.+ = ! { } ' W T X . U E U Y U Y E E W ` ` ` ' ' ' ' ' ' ' ' { + LXLXLXLXLXLXLX",
"LXLXLXLXSXCXlXkX6X1XI & X X X . $ 9 L * W U U U Y Y E E E ` ` ` ' ' ` ` ` ` } > l.HXLXLXLXLXLXLX",
"LXLXLXLXLXGXCXvXlX7X6X1X1X$X$X$X$X#X+X. E Y U U U U Y E E E ` W W ` ` ` W { ` % bXSXLXLXLXLXLXLX",
"LXLXLXLXLXLXKXSXbXvXlXkX7X7X7X6X7X3X$XI = ` Y U U U Y Y E E E E W E W E ` } o &XcXCXHXLXLXLXLXLX",
"LXLXLXLXLXLXLXLXLXGXSXCXbXbXvXvXcXkX6X1X& U W Y U U U U Y Y E Y E E E ` } = h.kXcXCXHXLXLXLXLXLX",
"LXLXLXLXLXLXLXLXLXLXLXLXKXKXHXHXHXCXcX7X$X+ Q ` Y Y U U U U Y Y Y E ' { * I 4XkXcXbXGXLXLXLXLXLX",
"LXLXLXLXLXLXLXLXLXLXLXLXLXLXLXLXLXSXbXlX6X#X% ; ` ' ` E U U U Q ` } E O h.3X7XlXvXCXHXLXLXLXLXLX",
"LXLXLXLXLXLXLXLXLXLXLXLXLXLXLXLXLXKXCXvXkX6X1XL o * T ` } } } ' Q * 0 @X3X6XkXcXbXSXLXLXLXLXLXLX",
"LXLXLXLXLXLXLXLXLXLXLXLXLXLXLXLXLXLXHXCXvXlX7X4X1Xj.r % X X X + r @X1X4X7XkXlXbXSXHXLXLXLXLXLXLX",
"LXLXLXLXLXLXLXLXLXLXLXLXLXLXLXLXLXLXLXGXCXvXlXkX7X6X3X3X1X1X1X3X3X4X7XkXkXcXbXSXHXLXLXLXLXLXLXLX",
"LXLXLXLXLXLXLXLXLXLXLXLXLXLXLXLXLXLXLXLXKXSXCXbXlXlXkXkX7X7X7X7XkXkXlXcXbXCXSXHXLXLXLXLXLXLXLXLX",
"LXLXLXLXLXLXLXLXLXLXLXLXLXLXLXLXLXLXLXLXLXLXHXSXSXbXbXcXcXvXvXvXvXbXCXCXSXHXLXLXLXLXLXLXLXLXLXLX",
"LXLXLXLXLXLXLXLXLXLXLXLXLXLXLXLXLXLXLXLXLXLXLXLXLXHXDXSXSXCXSXSXSXSXHXLXLXLXLXLXLXLXLXLXLXLXLXLX",
"LXLXLXLXLXLXLXLXLXLXLXLXLXLXLXLXLXLXLXLXLXLXLXLXLXLXLXLXLXLXLXLXLXLXLXLXLXLXLXLXLXLXLXLXLXLXLXLX"
};
