/* XPM */
static char *chessx_48[] = {
/* columns rows colors chars-per-pixel */
"48 48 251 2 ",
"   c #151F3E",
".  c #1A242B",
"X  c #1B272B",
"o  c #1B2634",
"O  c #1C2933",
"+  c #19253B",
"@  c #18263A",
"#  c #2C2A24",
"$  c #252A28",
"%  c #242B2D",
"&  c #2A2C2B",
"*  c #322B23",
"=  c #2B332C",
"-  c #232C33",
";  c #272E34",
":  c #2D3437",
">  c #25323C",
",  c #2A333C",
"<  c #31363C",
"1  c #353B3B",
"2  c #393C38",
"3  c #3D4639",
"4  c #48473B",
"5  c #554F3D",
"6  c #6F4C34",
"7  c #6F513D",
"8  c #1A2440",
"9  c #232F45",
"0  c #2C3845",
"q  c #323C45",
"w  c #3B3E41",
"e  c #2E3D50",
"r  c #354542",
"t  c #3E4142",
"y  c #35434C",
"u  c #3B444B",
"i  c #3C4A4B",
"p  c #354354",
"a  c #3B4552",
"s  c #3C4957",
"d  c #34425D",
"f  c #3C4B5C",
"g  c #3D4D61",
"h  c #3F4F68",
"j  c #3F5176",
"k  c #424343",
"l  c #484948",
"z  c #45554A",
"x  c #585845",
"c  c #424E5E",
"v  c #484A58",
"b  c #534A51",
"n  c #4E5D53",
"m  c #42535D",
"M  c #475858",
"N  c #545355",
"B  c #5A5956",
"V  c #555459",
"C  c #5E5A5D",
"Z  c #675949",
"A  c #705646",
"S  c #625D5F",
"D  c #6B5B59",
"F  c #5E674C",
"G  c #4E6153",
"H  c #586758",
"J  c #5C635E",
"K  c #5C735D",
"L  c #66654C",
"P  c #74634A",
"I  c #676657",
"U  c #796957",
"Y  c #78745B",
"T  c #464A6D",
"R  c #445364",
"E  c #495566",
"W  c #455964",
"Q  c #4D5C65",
"!  c #455569",
"~  c #495768",
"^  c #4D596A",
"/  c #585C66",
"(  c #545D6C",
")  c #445474",
"_  c #555A77",
"`  c #685761",
"'  c #625E61",
"]  c #4D626A",
"[  c #556669",
"{  c #5C626F",
"}  c #557067",
"|  c #5B736B",
" . c #4D6276",
".. c #556374",
"X. c #5D6472",
"o. c #556D73",
"O. c #5C6C76",
"+. c #55647B",
"@. c #5C667B",
"#. c #546B7B",
"$. c #5B6C7B",
"%. c #5C7576",
"&. c #646164",
"*. c #6B6465",
"=. c #656C61",
"-. c #62626B",
";. c #6A666C",
":. c #626C6A",
">. c #6D6A6D",
",. c #7E6967",
"<. c #736A6A",
"1. c #667569",
"2. c #75766A",
"3. c #626672",
"4. c #646A74",
"5. c #6C6B74",
"6. c #63697B",
"7. c #6E6E79",
"8. c #726D74",
"9. c #766F75",
"0. c #67737A",
"q. c #747275",
"w. c #7A7276",
"e. c #73727B",
"r. c #7B757C",
"t. c #7E787F",
"y. c #84523A",
"u. c #825B47",
"i. c #866957",
"p. c #84775B",
"a. c #936D6E",
"s. c #887663",
"d. c #827474",
"f. c #83787B",
"g. c #82797D",
"h. c #67837A",
"j. c #73827F",
"k. c #8F817F",
"l. c #4C5D88",
"z. c #545D81",
"x. c #4C5A97",
"c. c #505D9D",
"v. c #4F6287",
"b. c #546483",
"n. c #546A83",
"m. c #5A6C83",
"M. c #52648B",
"N. c #566C8C",
"B. c #5A6B8B",
"V. c #5B7382",
"C. c #5B728A",
"Z. c #526496",
"A. c #556893",
"S. c #54649B",
"D. c #57689B",
"F. c #5B7292",
"G. c #626682",
"H. c #647887",
"J. c #777680",
"K. c #7A7780",
"L. c #7D7982",
"P. c #667A93",
"I. c #667997",
"U. c #777C98",
"Y. c #4B56A5",
"T. c #505CA5",
"R. c #6676AB",
"E. c #6D72B2",
"W. c #847D84",
"Q. c #897F83",
"!. c #917E80",
"~. c #7C8085",
"^. c #748697",
"/. c #6D82A9",
"(. c #7386A9",
"). c #7E91A4",
"_. c #778AB6",
"`. c #7B8EBB",
"'. c #788BC3",
"]. c #7D93C6",
"[. c #878087",
"{. c #8A8185",
"}. c #8C848A",
"|. c #91858B",
" X c #95898E",
".X c #998888",
"XX c #8C839C",
"oX c #968895",
"OX c #9B8E92",
"+X c #9E9095",
"@X c #999499",
"#X c #A18F92",
"$X c #A49294",
"%X c #AA9596",
"&X c #AD9897",
"*X c #A69599",
"=X c #A9979A",
"-X c #AD999C",
";X c #B19C9D",
":X c #818BA8",
">X c #928EA9",
",X c #8593A9",
"<X c #8494BB",
"1X c #979AB3",
"2X c #B19DA0",
"3X c #B49FA8",
"4X c #BBA4A7",
"5X c #BDA5A5",
"6X c #BFA8A8",
"7X c #C0A7A7",
"8X c #C1A8A7",
"9X c #C2A9A9",
"0X c #C8ADAC",
"qX c #8499C7",
"wX c #8C9DCC",
"eX c #919AC5",
"rX c #899CD6",
"tX c #87A1C6",
"yX c #8CA2CC",
"uX c #95A3C8",
"iX c #8CA2D5",
"pX c #97A8D8",
"aX c #9AACDA",
"sX c #A5A8D1",
"dX c #A7B2DE",
"fX c #93AAE3",
"gX c #99ADE5",
"hX c #92AAE9",
"jX c #9AAEEA",
"kX c #9EB3E3",
"lX c #9EB3EA",
"zX c #93ADF4",
"xX c #9CB3F3",
"cX c #9CB4FE",
"vX c #9EB9FF",
"bX c #A4B6E7",
"nX c #A1B6EB",
"mX c #A6BAEE",
"MX c #B4BFEC",
"NX c #A3B8F2",
"BX c #A6BAF5",
"VX c #A3BBFE",
"CX c #A8BFFD",
"ZX c #A7C0FB",
"AX c #ABC3FF",
"SX c #B2C1F4",
"DX c #B0C7FF",
"FX c #B5CCFF",
"GX c #B8CEFF",
"HX c #B7D1FF",
"JX c #BAD1FF",
/* pixels */
"cXcXcXcXcXcXcXcXcXcXcXcXcXcXzXcXcXcXcXcXcXcXcXcXcXzXcXcXcXcXzXcXcXcXcXcXcXeXwXcXcXcXcXoXf.vXcXcX",
"cXcXcXcXvXcXcXcXVXzX:XU.hXxXl.'.cXcXcXcXcXcXcXcXcXcXcXcXcXcXcXcXcXcXcXcXzX&.i.gXcXvXrXP XXvXVXcX",
"VXcXVXcXVXvXVXVXpX9.Z x C ].l.f vXcXcXcXcXcXcXvXcXcXcXcXVXcXcXcXcXVXVXVXhXq 6 ~.cXvXr.U jXVXVXVX",
"VXVXVXVXVXVXVXzXw.6 & M x g v.s VXVXvXcXvXVXVXvXVXVXVXuX>XsXcXVXpXXX].xXZX_.: F tXwXy.>XVXVXVXVX",
"VXVXVXVXVXVXAX].V * z.VXiX/. .a qXpXZXVXVXfXI.m.:XVXhXP x H fXvXG.x R :XZXZX+.y 1.>.a.xXVXVXVXVX",
"AXVXAXVXVXVXAXI.< s VXVXZXVX#.G G  .].ZXhX@.z d { jX'.Z _ m hXrX_ B.c yXZXZXjXy n P sXZXCXCXVXVX",
"ZXCXVXAXCXCXVXM.% I.DXVXZXVXm.Q r b.h jX_.d b.wX3.`.`.,.NXvXAX_.{ aXVXZXZXVXAX/.G K nXCXCXCXCXCX",
"AXAXCXAXAXAXVXM.% `.DXZXAXVXC.0 I.gXm (.^.g yXR.n (.fX7 -.'.CXqXz S I.lXAXZXZXP.W x |.AXCXAXAXAX",
"AXAXAXAXAXAXAXD.; _.DXAXVXCXb.e NXlXh P.P.^ H f ..NXDX:XQ R iXDX(.E v ^.DXDX`.] F.1 u.aXDXAXAXAX",
"AXAXAXDXAXDXDX(.3 m.JXpX) I.B.p CXxX) P.(.h o.`.xXBXyXAXAXV.,XfXlXCX..q.AXkX] ^.DXE 5 ^.DXDXDXAX",
"DXDXDXDXDXDXDXaXZ b uXd.9 b.Z.d BXmXW P.yXW uXaXb.R.P.d.aX0.1XC.:.uXM.^.DXq.%.ZXFXwXr =.dXDXDXDX",
"DXFXDXFXDXFXDXDX@XD A 4 p nXS.e ZXSXG P.DX^.B W Q wXkXu.B @.SXyXG V l.nXeXB sXFXDXFX^ B sXFXFXDX",
"FXFXFXFXDXFXFXFXFXdX1X^.lXGXlXtXDXFXuXaXFXFXpXwXmXJXGXbX<XnXFXFXbX<XNXGXSXmXFXFXFXFXmXbXFXFXFXFX",
"FXGXGXGXGXGXGXGXFXGXJXJXJXFXJXJXFXHXJXHXGXGXSXMXGXGXFXJXJXJXGXFXJXJXGXFXFXJXGXGXJXFXJXJXFXGXFXGX",
"FXFXFXGXFXGXFXFXFXGXFXFXFXFXFXGXFXHXFXFXJXwXH.=.).FXFXFXFXFXFXGXFXFXFXFXFXFXFXFXFXFXGXGXFXGXGXFX",
"3.3.{ 3.{ 3.3.4.{ 3.3.3.3.3.{ 3.3.{ 3.3.@.x.| i i 6.@.6.0.5.3.3.3.3.{ -.{ { { 3.-.{ -.{ { 3.-.{ ",
"` ' ' ' C ' ' C &.C ' ' *.V *.' ' &.S *.C v > & w p ] [ I I I J S V *.V S C S C C V C C V C ' V ",
"r.5.9.9.5.d.r./ 8.W.>.>.5.8.g.-.-.f.q.X.+.+.h p 5 L U :.v.z.z.^ ;.-.;.8.8.<./ 8.d.-.-.9.;.<.>.-.",
"Q.g.9.e.r.Q.r.;.9.g.W.5.9.g.r.8.7.m.:.$.M.Y.M.6.i.,.#.o.| | j _ w.q.5.q.r.>.5.9.g.e.-.9.w.w.>.-.",
"{.r.W.9.W.J.L.W.e.W.9.W.L.r.L.,.@.M.#.n.M.b.3.#.$.b.v.n.K n -.9.r.r.r.r.8.r.e.d.9.9.r.9.r.5.r.;.",
"e.L.L.9.[.L.W.Q.e.Q.L.9.W.r.q.6.Z.M.6.| %.4.1.p.p.|  .g , t q.L.e.L.L.e.W.r.e.W.5.r.r.9.W.r.r.W.",
"{.OX{.}. Xe.e.W.7.e.|.L.W.|.U.B.5.2.V.B.C.2.Y I 7 4 = # % % 2 r.W.e.5.L.L.5.{.Q.r.W.Q.5.5.e.3.e.",
"r.X.( e.W.L.}.-X XQ.W.W.7.3.L.[ B ] j h f r > O X * & O + @ 1 Q.W.Q.OX Xr.r.r.5.^ 9.K.r.{.*X#XW.",
"-X+XoX|.L.^ { 7.7.e.K.*X*X X.X XOXJ @ o O @ O = - $ - 8 + - V 7.5.5.5.{ ( {.}.|. X%X-XW.e.5.3./ ",
"J.L.OX4X+X X|.|.|.e.( 7.J.e.e.J.Q.v @ O X % # o O X +     s 3.L.}.{.}.|.|.-X|.e.e.e.q.3.E 4.W.Q.",
"^ L.OX+X+X$X@X*X-Xe.4.4.4.4.4.@.7.S...7 l i d a z r 9 v { 4.3.}.$XOX#X#X+XOX|.( { 3.X.3.3.7.W.;X",
"R R g g R g X.$X9X9X9X9X9X0X9XW.R h ` u.o.b._ n 3 = ' 9X8X7X8X8XK.g g g g g m c 4.*X5X7X7X7X6X5X",
"L.L.L.[.L.X.[.|.}.}.}.}.}.W.OXW.L.L.J.w.9.q.q @ O X J |.}.}.}.{.W.7.L.K.r.L.K.K.e.W.*X{.W.{.W.Q.",
"9X0X0X2X7.R R R R R g R g ^ -X9X6X9X9X9X9X0XQ.@ + O y R R R R R c 3.5X0X7X7X9X7X9X5X5X X^ g R R ",
"4X4X X( W ~ ~ ~ ~ W ~ ~ ^  X9X6X4X4X5X5X5X6X-X, + O y ~ f a q 0 0 , N <.&X5X;X%X%X5X;X%X*XJ.c c ",
"J.-X-X=X=X-X-X-X-X=X-X-XL.X.X.X.X.X.X.X.{ X.{ > 8 @ 1 b 2 w k &.l k 1 & < w : ; ; u : ; < k - w ",
"4X9X9X9X6X9X9X6X9X9X9X-X^ R R R W R R R R R R p + O & - > : 1 l {.%X*..Xv o - , 0 . - - - O . - ",
"9X9X9X9X6X9X6X9X9X9X4X{ R ! E ! ^ ~ E R E ^  .S.l.i & $ * % % - v {.d.d.` 0 q q s c R E R f c R ",
"6X4X6X4X6X6X5X5X5X4XK.! ~ ^ ^ ^ ^ T ^ ^ ( O.M.Z.M.=.m 3 * * & * # O 2 k k < . . X - q R ^ ^ ^ E ",
"X.X.X.{ { X.X.{ ( }.2X2X-X;X;X-X2X2X=XH.:.$.M.D.V.U ] ) ) ^ Q R 7 x < - % % : k w k 2 N *X-X&X&X",
"! ! ! R E R ! R X.5X9X9X9X9X9X9X9X0Xf.>.Y V.C.S.e.Y #.n.x.v.| o.F A 4 . . . . w l k k b ;X9X5X9X",
"W ~ ! E ~ ~ ! ^ -X9X9X7X9X6X6X6X8X@Xi.<.Y m.$.N.2.n.M.v.M.#...F J [ 2 X . . . - k k l k.8X5X5X5X",
"~ ~ ~ ~ W ~ !  X0X9X5X9X9X9X7X9X6XL.s.2.0.N.C.V.$.A.N.M.#.v.x. . .W - . . . . . w d.&X8X6X5X5X6X",
"~ ~ ~ ~ ~ R J.9X9X9X7X9X9X9X9X9X5X0.Y j.V.N.S.$.V.#.C.M.v.n.#.o. .p X . . - s c R OX9X6X5X5X5X5X",
"~ ~ ! E R 6.5X0X9X9X9X9X9X9X9X9X5XH.s.p.h.V.S.Z.c.c.M.M.$.#.o.K z X X . . > W ! R ~ -X8X8X9X7X7X",
"X.{ X.{ { OX3X2X2X2X2X2X2X2X2X2X;X~.Y s.H.V.C.T.Y.c.c.V.1.Y } z ; % % $ , ( { X.X.( J.-X-X2X-X;X",
"6X6X6X9XL.^ ^ ^ ^ ^ ^ ^ ^ ^ ^ ^ ^ ] p.H.F.F.C.D.Y.A.A.Z.o.L l t k k w C %X5X4X5X5X4X6X|.E ~ ~ ^ ",
"9X9X0XOX~ E ~ E ~ ~ ~ ! ! ! ~ ~ ! E ^ } h.h.).,XE.C.} ) s k k k k C {.7X9X7X7X7X6X9X6X6X7.R R ~ ",
"9X9X2X^ ~ ~ E ^ ~ ~ ! ~ ~ ~ ~ ~ E ! ~ R m z M W T s 4 k l N ' d.#X8X9X9X7X7X9X7X9X5X5X9X4X{ R ! ",
"9X6X6.! E ~ ~ ~ E ^ E ~ ~ ! ~ ~ ~ ! ~ ~ ~ E c M .X.X#X$X&X4X9X9X8X9X7X7X7X7X7X7X7X7X7X7X9X$X~ ^ ",
"0XL.R ~ ^ ~ ^ E ~ ~ ~ ~ ~ ~ W ~ ~ ~ ~ ~ ~ ~ E _ 9X0X0X9X9X9X7X9X8X5X9X7X5X5X9X5X5X7X7X7X6X9XQ.R ",
"|.~ ~ ~ ^ E ~ ~ ^ E ~ ^ ~ ~ ~ ~ ~ ! ~ ~ ~ ~ E ( 3X9X9X9X6X9X6X9X5X9X9X5X6X6X8X6X9X7X5X7X5X9X6XL.",
"R ~ ^ ~ ~ E ^ E ^ ~ ~ ^ ~ ~ ~ ~ ~ ! ~ ! ~ ~ E ( 5X9X9X7X9X6X9X9X9X9X9X9X9X6X6X9X7X7X9X5X9X9X5X6X"
};
