/* XPM */
static char *gespeaker[] = {
/* columns rows colors chars-per-pixel */
"128 128 91 1 ",
"  c #555557575353",
". c #569258945490",
"X c #58E55AE756CA",
"o c #5BE85DE959E6",
"O c #5F2361245D20",
"+ c #610B630D5EDE",
"@ c #63F8659B6203",
"# c #674269446565",
"$ c #69056A6A66F5",
"% c #6CAC6E436AAA",
"& c #6EA170706D3A",
"* c #7171731D6F44",
"= c #745975E1723C",
"- c #772179237575",
"; c #79637B3B7777",
": c #7C537DF87AB7",
"> c #7F5F81417DFE",
", c #80D6822C7F29",
"< c #72749F9FCFCF",
"1 c #7372A09FCFCF",
"2 c #759BA1EDD110",
"3 c #7B07A571D2B8",
"4 c #7F7EA8A8D428",
"5 c #83AE850F81F7",
"6 c #8707888885B0",
"7 c #89568A5786ED",
"8 c #8C008D188A7E",
"9 c #8F6A90FE8E20",
"0 c #9123926D8EFC",
"q c #945E958A927C",
"w c #977A98989607",
"e c #98AF99DF9722",
"r c #9AD69BD79990",
"t c #9F9FA0A09E48",
"y c #A0E6A1E79EFB",
"u c #A4D2A5D3A359",
"i c #A7A7A8A8A5AD",
"p c #A9CEAACFA7A7",
"a c #AC7DAD7EAB07",
"s c #AFAFB0B0ADAD",
"d c #B0F0B1DCAF9A",
"f c #B44AB515B2BB",
"g c #B7B7B8B8B6B6",
"h c #B979B9F9B797",
"j c #BC69BD05BACC",
"k c #BFBFC0C0BE13",
"l c #C153C20ABF9A",
"z c #83F7ABDAD5BD",
"x c #894FAEE6D79E",
"c c #8AF0B0B0D7D7",
"v c #8E38B295D94A",
"b c #94BFB6CBDB6F",
"n c #9741B8B8DC86",
"m c #9D07BC7BDE48",
"M c #A0F5BF13DFDF",
"N c #A588C250E152",
"B c #A9D4C585E2A2",
"V c #AF15C8FBE4E4",
"C c #B47BCC85E63B",
"Z c #B8B8CECEE7E7",
"A c #BD7DD2B2E989",
"S c #C479C527C2E3",
"D c #C7C7C8C8C6C6",
"F c #C92FC92FC7C7",
"G c #CCF2CD3DCB70",
"H c #CFCFD0D0CECE",
"J c #D0D0D126CF79",
"K c #D4FCD585D40B",
"L c #D7D7D8D8D6D6",
"P c #D94DD94DD7A8",
"I c #DD24DD7DDBC3",
"U c #DFDFE0E0DDDD",
"Y c #E0E0E173DF71",
"T c #C26CD600EB40",
"R c #C71CD983EC96",
"E c #CCAADCFEEEA9",
"W c #D1D1DFDFEFEF",
"Q c #D4C0E293F167",
"! c #DB09E6B7F37E",
"~ c #DF45EA1CF4C1",
"^ c #E51BE55EE3FB",
"/ c #E993E993E791",
"( c #EEDAEEDCECDE",
") c #F0F0F0F0EFEF",
"_ c #E412ED03F6B0",
"` c #E993F0F0F7F7",
"' c #ECECF2F2F98B",
"] c #F50FF51DF50F",
"[ c #F25CF6B6FB50",
"{ c #F6E7F9BDFCED",
"} c #FFF7FFF8FFF9",
/* pixels */
"}}}}}}}}}}}}}}}}}}}}}}}}}}}}}}}}}}}}}}}}}}}}}}}}}}}}}}}}}}}}}}}}}}}}}}}}}}}}}}}}}}}}}}}}}}}}}}}}}}}}}}}}}}}}}}}}}}}}}}}}}}}}}}}}",
"}}}}}}}}}}}}}}}}}}}}}}}}}}}}}}}}}}}}}}}}}}}}}}}}}}}}}}}}}}}}}}}}}}}}}}}}}}}}}}}}}}}}}}}}}}}}}}}}}}}}}}}}}}}}}}}}}}}}}}}}}}}}}}}}",
"}}}}}}}}}}}}}}}}}}}}}}}}}}}}}}}}}}}}}}}}}}}}}}}}}}}}}}}}}}}}}}}}}}}}}}}}}}}}}}}}}}}}}}}}}}}}}}}}}}}}}}}}}}}}}}}}}}}}}}}}}}}}}}}}",
"}}}}}}}}}}}}}}}}}}}}}}}}}}}}}}}}}}}}}}}}}}}}}}}}}}}}}}}}}}}}}}}}}}}}}}}}}}}}}}}}}}}}}}}}}}}}}}}}}}}}}}}}}}}}}}}}}}}}}}}}}}}}}}}}",
"}}}}}}}}}}}}}}}}}}}}}}}}}}}}}}}}}}}}}}}}}}}}}}}}}}}}}}}}}}}}}}}}}}}}}}}}}}}}}}}}}}}}}}}}}}}}}}}}}}}}}}}}}}}}}}}}}}}}}}}}}}}}}}}}",
"}}}}}}}}}}}}}}}}}}}}}}}}}}}}}}}}}}}}}}}}}}}}}}}}}}}}}}}}}}}}}}}}}}}}}}}}}}}}}}}}}}}}}}}}}}}}}}}}}}}}}}}}}}}}}}}}}}}}}}}}}}}}}}}}",
"}}}}}}}}}}}}}}}}}}}}}}}}}}}}}}}}}}}}}}}}}}}}}}}}}}}}}}}}}}}}}}}}}}}}}}}}}}}}}}}}}}}}}}}}}}}}}}}}}}}}}}}}}}}}}}}}}}}}}}}}}}}}}}}}",
"}}}}}}}}}}}}}}}}}}}}}}}}}}}}}}}}}}}}}}}}}}}}}}}}}}}}}}}}}}}}}}}}}}}}}}}}}}}}}}}}}}}}}}}}}}}}}}}}}}}}}}}}}}}}}}}}}}}}}}}}}}}}}}}}",
"}}}}}}}}}}}}}}}}}}}}}}}}}}}}}}}}}}}}}}}}}}}}}}}}}}}}}}}}}}}}}}}}}}}}}}}}}}}}}}}}}}}}}}}}}}}}}}}}}}}}}}}}}}}}}}}}}}}}}}}}}}}}}}}}",
"}}}}}}}}}}}}}}}}}}}}}}}}}}}}}}}}}}}}}}}}}}}}}}}}}}}}}}}}}}}}}}}}}}}}}}}}}}}}}}}}}}}}}}}}}}}}}}}}}}}}}}}}}}}}}}}}}}}}}}}}}}}}}}}}",
"}}}}}}}}}}}}}}}}}}}}}}}}}}}}}}}}}}}}}}}}}}}}}}}}}}}}}}}}}}}}}}}}}}}}}}}}}}}}}}}}}}}}}}}}}}}}}}}}}}}}}}}}}}}}}}}}}}}}}}}}}}}}}}}}",
"}}}}}}}}}}}}}}}}}}}}}}}}}}}}}}}}}}}}}}}}}}}}}}}}}}}}}}}}}}}}}}}}}}}}}}}}}}}}}}}}}}}}}}}}}}}}}}}}}}}}}}}}}}}}}}}}}}}}}}}}}}}}}}}}",
"}}}}}}}}}}}}}}}}}}}}}}}}}}}}}}}}}}}}}}}}}}}}}}}}}}}}}}}}}}}}}}}}}}}}}}}}}}}}}}}}}}}}}}}}}}}}}}}}}}}}}}}}}}}}}}}}}}}}}}}}}}}}}}}}",
"}}}}}}}}}}}}}}}}}}}}}}}}}}}}}}}}}}}}}}}}}}}}}}}}}}}}}}}}}}}}}}}}}}}}}}}}}}}}}}}}}}}}}}}}}}}}}}}}}}}}}}}}}}}}}}}}}}}}}}}}}}}}}}}}",
"}}}}}}}}}}}}}}}}}}}}}}}}}}}}}}}}}}}}}}}}}}}}}}}}}}}}}}}}}}}}}}}}}}}}}}}}}}}}}}}}}}}}}}}}}}}}}}}}}}}}}}}}}}}}}}}}}}}}}}}}}}}}}}}}",
"}}}}}}}}}}}}}}}}}}}}}}}}}}}}}}}}}}}}}}}}}}}}}}}}}}}}}}}}}}}}}}}}}}}}}}}}}}}}}}}}}}}}}}}}}}}}}}}}}}}}}}}}}}}}}}}}}}}}}}}}}}}}}}}}",
"}}}}}}}}}}}}}}}}}}}}}}}}}}}}}}}}}}}}}}}}}}}}}}}}}}}}}}}}}}}}}}]]}}}}}}}}}}}}}}}}}}}}}}}}}}}}}}}}}}}}}}}}}}}}}}}}}}}}}}}}}}}}}}}}",
"}}}}}}}}}}}}}}}}}}}}}}}}}}}}}}}}}]KhrweererrrereeeeeeeeeeeqewrrerpjP{}}}}}}}}}}}}}}}}}}}}}}}}}}}}}}}}}}}}}}}}}}}}}}}}}}}}}}}}}}}",
"}}}}}}}}}}}}}}}}}}}}}}}}}}}}}}^a;.  .           .   .               .>j]}}}}}}}}}}}}}}}}}}}}}}}}}}}}}}}}}}}}}}}}}}}}}}}}}}}}}}}}",
"}}}}}}}}}}}}}}}}}}}}}}}}}}}}S-      ..                              .  or^}}}}}}}}}}}}}}}}}}}}}}}}}}}}}}}}}}}}}}}}}}}}}}}}}}}}}}",
"}}}}}}}}}}}}}}}}}}}}}}}}}{f#          ..                    ...    .     .0/}}}}}}}}}}}}}}}}}}}}}}}}}}}}}}}}}}}}}}}}}}}}}}}}}}}}",
"}}}}}}}}}}}}}}}}}}}}}}}}G&            ..                    .X     .      ..p{}}}}}}}}}}}}}}}}}}}}}}}}}}}}}}}}}}}}}}}}}}}}}}}}}}",
"}}}}}}}}}}}}}}}}}}}}}}]w        X,slP(((((((((((((((((((((((()((/PSy*        &U}}}}}}}}}}}}}}}}}}}}}}}}}}}}}}}}}}}}}}}}}}}}}}}}}",
"}}}}}}}}}}}}}}}}}}}}}L%       =d/((((((((((((((((((((((((((((((((((((LeO     .Xg}}}}}}}}}}}}}}}}}}}}}}}}}}}}}}}}}}}}}}}}}}}}}}}}",
"}}}}}}}}}}}}}}}}}}}}f.      -F((()(((((((((((((((((((((((((((((((((((((/yo..    r{}}}}}}}}}}}}}}}}}}}}}}}}}}}}}}}}}}}}}}}}}}}}}}",
"}}}}}}}}}}}}}}}}}}{q      #h(((((((((((((((((((((((((((()((((((((((((((((I,      6{}}}}}}}}}}}}}}}}}}}}}}}}}}}}}}}}}}}}}}}}}}}}}",
"}}}}}}}}}}}}}}}}});.     0/((((((((((((((((((((((((((((((((((((((((((((((((j+. . .,{}}}}}}}}}}}}}}}}}}}}}}}}}}}}}}}}}}}}}}}}}}}}",
"}}}}}}}}}}}}}}}}(*     +l(((((((((((((((((((((((((((((((((((((((((((((((((((P% . ..0}}}}}}}}}}}}}}}}}}}}}}}}}}}}}}}}}}}}}}}}}}}}",
"}}}}}}}}}}}}}}}^$     *P((((((((((((((((()((((((((((()(((((((((((((((((((((((^,.    d}}}}}}}}}}}}}}}}}}}}}}}}}}}}}}}}}}}}}}}}}}}",
"}}}}}}}}}}}}}}I+.    6/(((((((((((((((((((((((((((((((((((((((((((((((((((((((/,    oY}}}}}}}}}}}}}}}}}}}}}}}}}}}}}}}}}}}}}}}}}}",
"}}}}}}}}}}}}}IO     q((((((((((((((((((((((((((((((((((((((()((((()(((((((((((((-    ;}}}}}}}}}}}}}}}}}}}}}}}}}}}}}}}}}}}}}}}}}}",
"}}}}}}}}}}}})%     t((((((((((((((((((((((((((()((((((((((((((((((((((((((((((((U+    F}}}}}}}}}}}}}}}}}}}}}}}}}}}}}}}}}}}}}}}}}",
"}}}}}}}}}}}}:   ..a((((((((((((((((((((((((((((((((((((((((((((((((((((((((((((((d    *}}}}}}}}}}}}}}}}}}}}}}}}}}}}}}}}}}}}}}}}}",
"}}}}}}}}}}}i    .f((((((((((((((((((((((((((((((((((((((((((((((((((((((((((((((((*    G}}}}}}}}}}}}}}}}}}}}}}}}}}}}}}}}}}}}}}}}",
"}}}}}}}}}}P.    y((((((((((((((()(((((((((((((((((((((((((((((((((((((((((((((((((j    8}}}}}}}}}}}}}}}}}}}}}}}}}}}}}}}}}}}}}}}}",
"}}}}}}}}}{%    :((((((((((((((((((((((((DitaI((((((((((((((((((((((L0# +6D(((((((((#   o]}}}}}}}}}}}}}}}}}}}}}}}}}}}}}}}}}}}}}}}",
"}}}}}}}}}a    +U((((((((((((((((((((((K=     q/(((((((((((((((((((ho    ..e((((((((t    F}}}}}}}}}}}}}}}}}}}}}}}}}}}}}}}}}}}}}}}",
"}}}}}}}}(o    j((((((((((((((((((((((Jo       ,((((((((((((((((((G.     .  i(((((((J    t}}}}}}}}}}}}}}}}}}}}}}}}}}}}}}}}}}}}}}}",
"}}}}}}}}i   .6(((((((((((((((((((((((&         p(((((((((((((((((=         o^(((((((O   -}}}}}}}}}}}}}}}}}}}}}}}}}}}}}}}}}}}}}}}",
"}}}}}}}]+ ...P((((((((((((((((((((((l.         @((((((((((((((((P          .h(((((((5   o}}}}}}}}}}}}}}}}}}}}}}}}}}}}}}}}}}}}}}}",
"}}}}}}}l    9((((((((((((((((((()(((r           P(((((((((((((((l           y(((((((r    (}}}}}}}}}}}}}_BBZ'}}}}}}}}}}}}}}}}}}}}",
"}}}}}}}0    J(((((((((((((((((((((((0           G(((((((((((((((l           y(((((((d    L}}}}}}}}}}}}!11<<2B'}}}}}}}}}}}}}}}}}}",
"}}}}}}}+   %((((((((((((((((((((((((y.          U((((((((((((()(YX         .l(((((((k    F}}}}}}}}}}}}x<<<<<<3T}}}}}}}}}}}}}}}}}",
"}}}}}}{.   q(((((((((((((((((((((())l          &(((((((((((((((((,         +/(((((((S    D}}}}}}}}}}}{<<<<<<<<<b[}}}}}}}}}}}}}}}",
"}}}}}}/.   y(((((((((((((()((((((((((;         h(((((((((((((((((Lo        j((((((((F   .S}}}}}}}}}}}}4<<<<<<<<<4_}}}}}}}}}}}}}}",
"}}}}}}].   ;Y((((((((((((((((()((((((U%       w((((()(((((((((((((G#    ..f(((((((((G.  .j}}}}}}}}}}}}Z<<<<<<<<<<2Q}}}}}}}}}}}}}",
"}}}}}}}*    .6S(((((((((((((((((((((((^0X   @f(((((((((((((((((((((/d,&=rI((((((((((l    F}}}}}}}}}}}}}V1<<<<<<<<<1Q}}}}}}}}}}}}",
"}}}}}}}g   .. .$iY((((((((((((((((((((((^ljJ((((((((((((((((((((((((((((((((((((((((j   .J}}}}}}}}}}}}}}'B1<<<<<<<<2!}}}}}}}}}}}",
"}}}}}}}};.       .6S((((((()(((((((((((((((((((((((()(((((((((((((((((((((((((()((((f.   P}}}}}}}}}}}}}}}}~x<<<<<<<<3'}}}}}}}}}}",
"}}}}}}}}]q..     .  #uI(((((((((((((((((((((((((((((((((((((((((((((((((((((((((((((p    ^}}}}}}}}}}}}}}}}}{N<<<<<<<<c{}}}}}}}}}",
"}}}}}}}}}}]j=          :j/((((((()((((((((((((((((((((((((((((((((((((((((((((((((((t   .(}}}}}}}}}}}}}}}}}}}Z<<<<<<<<B}}}}}}}}}",
"}}}}}}}}}}}}}Iro       . @rP((((((((((((((((()((((((((((((()((((((((((((((((((((((((e    ]}}}}}}}}}}}}}}}}}}}}A<<<<<<<<Q}}}}}}}}",
"}}}}}}}}}}}}}}})d&   .     .0(((((((((((((((((((((((((((((((((((((((((((((((((((((((9   .}}}}}}}}}}}}}}}}}}}}}}C<<<<<<<x}}}}}}}}",
"}}}}}}}}}}}}}}}}}}J9..       e(((((((()(((((((((((((((((((((((((((((((((((((((((((((6   O}}}}}}}}}}}}}}}}}}}}}}}n<<<<<<<A}}}}}}}",
"}}}}}}}}}}}}}}}}}}}})s&      .^((((((((((((((((((((((((((((((()(((((((((((((((((((((:.  #}}}}}}}}}}}}}}}}}}}}}}}[4<<<<<<3{}}}}}}",
"}}}}}}}}}}}}}}}}}}}}}}}L0o   .h((((((((()((((((((((((()(((((((((((((((((((((((((((((=.  *}}}}}}}}}}}}}}}}}}}}}}}}E<<<<<<<A}}}}}}",
"}}}}}}}}}}}}}}}}}}}}}}}}}^    0(((((((((((((((((((()((((((((((((((((((((((((((((((((%.  ;}}}}}}}}}}}}}}}}}}}}}}}}}n<<<<<<4}}}}}}",
"}}}}}}}}}}}}}}}}}}}}}}}}}}%   @((((((((((((((((((((((((((((((((((((((((((()(((((((((@   6}}}}}[CNC_}}}}}}}}}}}}}}}~<<<<<<<E}}}}}",
"}}}}}}}}}}}}}}}}}}}}}}}}}}r    J((((((((((((((((((((((((((((((((((((((((((((((((((((O   9}}}}'4<<<<M'}}}}}}}}}}}}}}n<<<<<<b}}}}}",
"}}}}}}}}}}}}}}}}}}}}}}}}}}H    u((((((((((((((((((((((((((((((()((((((((((((((((((((.   w}}}}B<<<<<<2R}}}}}}}}}}}}}Q<<<<<<<[}}}}",
"}}}}}}}}}}}}}}}}}}}}}}}}}}]o   ;(((((((((((((((((((/lypl/(((((P,+$0P(((((((((((((((/    t}}}}x<<<<<<<<V}}}}}}}}}}}}}z<<<<<<E}}}}",
"}}}}}}}/hdD]}}}}}}}}}}}}}}}5   ./((((((((()(((((((H$ .  @i/((H+ ...Xs((((((((((((((I    p}}}}m<<<<<<<<<Z}}}}}}}}}}}}V<<<<<<M}}}}",
"}}}}}{t    oqL}}}}}}}}}}}}}d    j((((((((((((((((h.       $r,O    .. ,(((((((((((((K    d}}}}!<<<<<<<<<<R}}}}}}}}}}}~<<<<<<2{}}}",
"}}}}}8        $p/}}}}}}}}}}^    0(((((((((((((((s..         OX        ;^((((()(((((F    k}}}}}R4<<<<<<<<3'}}}}}}}}}}}4<<<<<<~}}}",
"}}}}D      .     >D}}}}}}}}}$   @((((((((((((((r               ..o     =Y((((((((((j    H}}}}}}{C111<<<<<m}}}}}}}}}}}N<<<<<<A}}}",
"}}}},      .       p}}}}}}}}e    K((((((((((((q     oDJ6       oG/;     =/(((((((((i  ..I}}}}}}}}Q21<<<<<<_}}}}}}}}}}R<<<<<<B}}}",
"}}}}+.  %Je+  ..    P}}}}}}}F.   i(((((((((((0    .@P}}}L8o. @e/}}]8.    =P((((((((;   .{}}}}}}}}}Q1<<<<<<N}}}}}}}}}}_<<<<<<v}}}",
"}}}(    e(((l8X   ..r}}}}}}}]X   :(((((((((/8     &^}}}}}}{((}}}}}}}0       o%;,0rq.   :}}}}}}}}}}}B<<<<<<2{}}}}}}}}}{1<<<<<2}}}",
"}}}^    i(((((/fO   @{}}}}}}}:    X+#=-,70e,     =]}}}}}}}}}}}}}}}}}}0                 g}}}}}}}}}}}{211<<<<E}}}}}}}}}}x<<<<<<'}}",
"}}}(    y(((((((q    F}}}}}}}s     .    .       ;]}}}}}}}}}}}}}}}}}}}}8               O]}}}}}}}}}}}}B1<<<<<N}}}}}}}}}}n<<<<<<_}}",
"}}}]   .e(((((((G    6}}}}}}}(o               .:]}}}}}}}}}}}}}}}}}}}}}{0             .G}}}}}}}}}}}}}!<<<<<<x}}}}}}}}}}N<<<<<<!}}",
"}}}}.  .0((((((((%   .]}}}}}}}Fo              ,{}}}}}}}}}}}}}}}}}}}}}}}}Yfie7>&+   o9I}}}}}}}}}}}}}}}2<<<<<2}}}}}}}}}}V<<<<<<E}}",
"}}}}o   8((((((((u    f}}}}}}}}^se07,-&#O  .ot{}}}}}}}}}}}}}}}}}}}}}}}}}}}}}}}}}}]]}}}}}}}}}}}}}}}}}}x<<<<<<'}}}}}}}}}Z<<<<<<R}}",
"}}}}#   ,((((((((I.   ;}}}}}}}}}}}}}}}}}}}]]}}}}}}}}}}}}}}}}}}}}}}}}}}}}}}}}}}}}}}}}}}}}}}}}}}}}}}}}}n<<<<<<_}}}}}}}}}A<<<<<<A}}",
"}}}}&   ;(((((((((;.   ^}}}}}}}}}}}}}}}}}}}}}}}}}}}}}}}}}}}}}}}}}}}}}}}}}}}}}}}}}}}}}}}}}}}}}}}}}}}}}M<<<<<<~}}}}}}}}}A<<<<<1A}}",
"}}}}-   *(((((((((d.   u}}}}}}}}}}}}}}}}}}}}}}}}}}}}}}}}}}}}}}}}}}}}}}}}}}}}}}}}}}}}}}}}}}}}}}}}}}}}}m<<<<<<~}}}}}}}}}Z<<<<<1R}}",
"}}}}>   %(((((((((^o   #}}}}}}}}}}}}}}}}}}}}}}}}}}}}}}}}}}}}}}}}}}}}}}}}}}}}}}}}}}}}}}}}}}}}}}}}}}}}}n<<<<<<_}}}}}}}}}C<<<<<<E}}",
"}}}}7   +((((((((((7    K}}}}}}}}}}}}}}}}}}}}}}}}}}}}}}}}}}}}}}}}}}}}}}}}}}}}}}}}}}}}}}}}}}}}}}}}}}}}z<<<<<<[}}}}}}}}}N<<<<<<Q}}",
"}}}}0   X(((((()(((S    q}}}}}}}}}}}}}}}}}}}}}}}}}}}}}}}}}}}}}}}}}}}}}}}}}}}}}}}}}}}}}}}}}}}}}}}}}}}[<<<<<<3}}}}}}}}}}m<<<<<1!}}",
"}}}}e    ((((((((((/@   O]}}}}}}}}}}}}}}}}}}}}}}}}}}}}}}}}}}}}}}}}}}}}}}}}}}}}}}}}}}}}}}}}}}}}}}}}}}W<<<<<<b}}}}}}}}}}c<<<<<<`}}",
"}}}}u    ^((((((()((e    ,9eeeyyuisdjjFFJKII]}}}}}}}}}}}}}}}}}}}}}}}}}}Py7,,80erupJ}}}}}}}}}}}}}}}}}N<<<<<<V}}}}}}}}}}<<<<<<1}}}",
"}}}}a    P((((((((((J                        -s]}}}}}}}}}}}}}}}}}}}}}K:.           %L}}}}}}}}}}}}}}[2<<<<<<Q}}}}}}}}}'<<<<<<x}}}",
"}}}}d    L(((((((((((&                         Of{}}}}}}}}}}}}}}}}}}d...            .Y}}}}}}}}}}}}}Z<<<<<<2}}}}}}}}}}Q<<<<<<m}}}",
"}}}}j    H(((((((((((f                          .&I}}}}}}}}}}}}}}}}r                .>}}}}}}}}}}}}'2<<<<<<B}}}}}}}}}}C<<<<<<C}}}",
"}}}}S    D((((((((((((i&o++                       Xs}}}}}}}}}}}}}}q      +#$+o  ..   .)}}}}}}}}}}{v<<<<<<2`}}}}}}}}}}v<<<<<<E}}}",
"}}}}H    k((((((((((((((((((((/^^^LLHGSSjhda>.      ,/}}}}}}}}}}{9.   .Os(((((((^r    L}}}}}}}}}{n<<<<<<<n}}}}}}}}}}[<<<<<<1{}}}",
"}}}}K    g(((((((((((((((((((((((((((((((((((L5      oh}}}}}}}}/;   ..%P(((((((((h    J}}}}}}}}!x<<<<<<<2_}}}}}}}}}}E<<<<<<v}}}}",
"}}}}I    a(((((((((((((((((((((((((((((((((((((jO      *l]}}}Iq.    .*Y)(((((((((g    L}}}}}}}V<<<<<<<<<Z}}}}}}}}}}}m1<<<<<Z}}}}",
"}}}}^    i((((((((((((((((((((((((((((((((((((((I,       .%,$       =Y(((((((((((f    L}}}}}}R<<<<<<<<<n}}}}}}}}}}}[2<<<<<<!}}}}",
"}}}}(    t(((((((()(((((((((((((((((((((((((((((((uX               6/((((((((((((d    P}}}}}}n<<<<<<<<x[}}}}}}}}}}}Z<<<<<<3}}}}}",
"}}}}{    e(((((((((((((((((((((((((((((((((((((((((L,            op(((((((((((()(s    I}}}}}}v<<<<<<1x'}}}}}}}}}}}}4<<<<<<C}}}}}",
"}}}}}.   7((((((((((((((((((((((((((((((((((((((((((/l=        oeY(((((((((((((((a    ^}}}}}}C<<<<<<n{}}}}}}}}}}}}Q<<<<<<<`}}}}}",
"}}}}}$  .;(((((((((((((((()((((((((((((((((((((((((((((Lp,;%&0l/(((((((((((((((((p    ^}}}}}}{v1<<4R}}}}}}}}}}}}}}c<<<<<<n}}}}}}",
"}}}}},   o(((((((((((((((((((((((((()((((((((((((((((((((((((((((((((((((((((((((p    ^}}}}}}}}ERQ{}}}}}}}}}}}}}}R<<<<<<<E}}}}}}",
"}}}}}u    F((((((((((((((((((((((((((((((((((((((((((((((((((((((((((((((((((((((u    /}}}}}}}}}}}}}}}}}}}}}}}}}{4<<<<<<z}}}}}}}",
"}}}}}J    9(((((((((((((((((((((()(((((((((((()(((((((((((((((((((((((((()(((((((y    (}}}}}}}}}}}}}}}}}}}}}}}}}B<<<<<<<T}}}}}}}",
"}}}}}{+   .H((((((((((((((((((((((((((((((((((((((((()(((((((((((((((((((((((((((y    (}}}}}}}}}}}}}}}}}}}}}}}}Q<<<<<<<x}}}}}}}}",
"}}}}}}u   .$P((((((()(((((((((((((((((((((((()(((((((((((((((((((((((((((((((((((r    ]}}}}}}}}}}}}}}}}}}}}}}}'3<<<<<<<!}}}}}}}}",
"}}}}}}]+    @F((((((((((((((((((((((((((((((((((((((((((((((((((((((((((((()(((((e    ]}}}}}}}}}}}}}}}}}}}}}}{c<<<<<<<m}}}}}}}}}",
"}}}}}}}l     .0I(((((((((((((((((((((()(((((((((((((((((((((((((((((((()(((((((((e    {}}}}}}}}}}}}}}}}}}}}}{v<<<<<<<z{}}}}}}}}}",
"}}}}}}}}i     ..wP(((((((((((((((((((((((((((((((((((((((()((((((((((((((((((((((q..  {}}}}}}}}}}}}}}}}}}}}{n<<<<<<<<Q}}}}}}}}}}",
"}}}}}}}}}d.     ..7G(((((((((((((((((((((()((((((((((((((((((((((((((((((((((((((7   .}}}}}}}}}}}}}}}}}}}}[b<<<<<<<<V}}}}}}}}}}}",
"}}}}}}}}}}H@    .   -l((((((((((((((((((((((((((((((()((((((((((((((((((((((((((/@   &}}}}}}}}}}}}}}}}}}}_z<<<<<<<<n}}}}}}}}}}}}",
"}}}}}}}}}}}]io        *j(()(((((((((((((((((((((((((((((((((((((((((((((((((((((s    w}}}}}}}}}}}}}}}}}}Z1<<<<<<<<x{}}}}}}}}}}}}",
"}}}}}}}}}}}}}/ro        *f(((((((((((((((((((((((((((((((((((((((((((((((((((((GX.   J}}}}}}}}}}}}}}}}{n<<<<<<<<<z[}}}}}}}}}}}}}",
"}}}}}}}}}}}}}}}]p#      ..@yI(((((((((((((((((((((((((((((((((((((((((((((((((lo    :}}}}}}}}}}}}}}}}}B1<<<<<<<<z'}}}}}}}}}}}}}}",
"}}}}}}}}}}}}}}}}}{k&        .;sY(((((((((((((((((()(((((((((((((((((((((((((/e.    oI}}}}}}}}}}}}}}}}}2<<<<<<<<v[}}}}}}}}}}}}}}}",
"}}}}}}}}}}}}}}}}}}}}S=      .  .&qjI(((()((((((((((((((((((((((((()((((((((F%...  .S}}}}}}}}}}}}}}}}}{1<<<<<<<N{}}}}}}}}}}}}}}}}",
"}}}}}}}}}}}}}}}}}}}}}}S;            +:rgGY(((((((((((((((((((((((((((((((I9.    .Xj}}}}}}}}}}}}}}}}}}}b<<<<<2T}}}}}}}}}}}}}}}}}}",
"}}}}}}}}}}}}}}}}}}}}}}}}L8          . .   o=5qypiiiiiiiiipiiiiiiiiiipipy>X.     $J}}}}}}}}}}}}}}}}}}}}'4<<<v`}}}}}}}}}}}}}}}}}}}",
"}}}}}}}}}}}}}}}}}}}}}}}}}}(f:.  .         .                           ..      .w]}}}}}}}}}}}}}}}}}}}}}}{TAQ}}}}}}}}}}}}}}}}}}}}}",
"}}}}}}}}}}}}}}}}}}}}}}}}}}}}}(j8+                                      .    .$J}}}}}}}}}}}}}}}}}}}}}}}}}}}}}}}}}}}}}}}}}}}}}}}}}",
"}}}}}}}}}}}}}}}}}}}}}}}}}}}}}}}}}Yjr;o.                                    oi]}}}}}}}}}}}}}}}}}}}}}}}}}}}}}}}}}}}}}}}}}}}}}}}}}}",
"}}}}}}}}}}}}}}}}}}}}}}}}}}}}}}}}}}}}}{IFdr5%o                           .-s(}}}}}}}}}}}}}}}}}}}}}}}}}}}}}}}}}}}}}}}}}}}}}}}}}}}}",
"}}}}}}}}}}}}}}}}}}}}}}}}}}}}}}}}}}}}}}}}}}}}}{(/////////////////////////)}}}}}}}}}}}}}}}}}}}}}}}}}}}}}}}}}}}}}}}}}}}}}}}}}}}}}}}",
"}}}}}}}}}}}}}}}}}}}}}}}}}}}}}}}}}}}}}}}}}}}}}}}}}}}}}}}}}}}}}}}}}}}}}}}}}}}}}}}}}}}}}}}}}}}}}}}}}}}}}}}}}}}}}}}}}}}}}}}}}}}}}}}}",
"}}}}}}}}}}}}}}}}}}}}}}}}}}}}}}}}}}}}}}}}}}}}}}}}}}}}}}}}}}}}}}}}}}}}}}}}}}}}}}}}}}}}}}}}}}}}}}}}}}}}}}}}}}}}}}}}}}}}}}}}}}}}}}}}",
"}}}}}}}}}}}}}}}}}}}}}}}}}}}}}}}}}}}}}}}}}}}}}}}}}}}}}}}}}}}}}}}}}}}}}}}}}}}}}}}}}}}}}}}}}}}}}}}}}}}}}}}}}}}}}}}}}}}}}}}}}}}}}}}}",
"}}}}}}}}}}}}}}}}}}}}}}}}}}}}}}}}}}}}}}}}}}}}}}}}}}}}}}}}}}}}}}}}}}}}}}}}}}}}}}}}}}}}}}}}}}}}}}}}}}}}}}}}}}}}}}}}}}}}}}}}}}}}}}}}",
"}}}}}}}}}}}}}}}}}}}}}}}}}}}}}}}}}}}}}}}}}}}}}}}}}}}}}}}}}}}}}}}}}}}}}}}}}}}}}}}}}}}}}}}}}}}}}}}}}}}}}}}}}}}}}}}}}}}}}}}}}}}}}}}}",
"}}}}}}}}}}}}}}}}}}}}}}}}}}}}}}}}}}}}}}}}}}}}}}}}}}}}}}}}}}}}}}}}}}}}}}}}}}}}}}}}}}}}}}}}}}}}}}}}}}}}}}}}}}}}}}}}}}}}}}}}}}}}}}}}",
"}}}}}}}}}}}}}}}}}}}}}}}}}}}}}}}}}}}}}}}}}}}}}}}}}}}}}}}}}}}}}}}}}}}}}}}}}}}}}}}}}}}}}}}}}}}}}}}}}}}}}}}}}}}}}}}}}}}}}}}}}}}}}}}}",
"}}}}}}}}}}}}}}}}}}}}}}}}}}}}}}}}}}}}}}}}}}}}}}}}}}}}}}}}}}}}}}}}}}}}}}}}}}}}}}}}}}}}}}}}}}}}}}}}}}}}}}}}}}}}}}}}}}}}}}}}}}}}}}}}",
"}}}}}}}}}}}}}}}}}}}}}}}}}}}}}}}}}}}}}}}}}}}}}}}}}}}}}}}}}}}}}}}}}}}}}}}}}}}}}}}}}}}}}}}}}}}}}}}}}}}}}}}}}}}}}}}}}}}}}}}}}}}}}}}}",
"}}}}}}}}}}}}}}}}}}}}}}}}}}}}}}}}}}}}}}}}}}}}}}}}}}}}}}}}}}}}}}}}}}}}}}}}}}}}}}}}}}}}}}}}}}}}}}}}}}}}}}}}}}}}}}}}}}}}}}}}}}}}}}}}",
"}}}}}}}}}}}}}}}}}}}}}}}}}}}}}}}}}}}}}}}}}}}}}}}}}}}}}}}}}}}}}}}}}}}}}}}}}}}}}}}}}}}}}}}}}}}}}}}}}}}}}}}}}}}}}}}}}}}}}}}}}}}}}}}}",
"}}}}}}}}}}}}}}}}}}}}}}}}}}}}}}}}}}}}}}}}}}}}}}}}}}}}}}}}}}}}}}}}}}}}}}}}}}}}}}}}}}}}}}}}}}}}}}}}}}}}}}}}}}}}}}}}}}}}}}}}}}}}}}}}",
"}}}}}}}}}}}}}}}}}}}}}}}}}}}}}}}}}}}}}}}}}}}}}}}}}}}}}}}}}}}}}}}}}}}}}}}}}}}}}}}}}}}}}}}}}}}}}}}}}}}}}}}}}}}}}}}}}}}}}}}}}}}}}}}}"
};
