/* XPM */
static char *icon[] = {
/* columns rows colors chars-per-pixel */
"32 32 256 2 ",
"   c #020302",
".  c #0C0100",
"X  c #020A01",
"o  c #05090A",
"O  c #1B0300",
"+  c #1B0B02",
"@  c #140300",
"#  c #011604",
"$  c #191A06",
"%  c #050A17",
"&  c #181614",
"*  c #1F0F12",
"=  c #280602",
"-  c #380600",
";  c #291704",
":  c #381804",
">  c #251A15",
",  c #341E16",
"<  c #260E1B",
"1  c #1B2704",
"2  c #182715",
"3  c #0F2B1A",
"4  c #2D2402",
"5  c #262C00",
"6  c #342606",
"7  c #262818",
"8  c #382918",
"9  c #31360F",
"0  c #101E22",
"q  c #391B2C",
"w  c #2E172A",
"e  c #062529",
"r  c #1A3829",
"t  c #143636",
"y  c #0C282B",
"u  c #293828",
"i  c #383526",
"p  c #383535",
"a  c #2F2E33",
"s  c #420201",
"d  c #480902",
"f  c #540200",
"g  c #590A00",
"h  c #491902",
"j  c #571605",
"k  c #4B1718",
"l  c #4D101B",
"z  c #690400",
"x  c #780006",
"c  c #651602",
"v  c #791C02",
"b  c #7B1615",
"n  c #75051B",
"m  c #472603",
"M  c #582701",
"N  c #573707",
"B  c #422518",
"V  c #513110",
"C  c #672805",
"Z  c #7A2705",
"A  c #653706",
"S  c #753606",
"D  c #663515",
"F  c #6D2617",
"G  c #521423",
"H  c #631E21",
"J  c #452826",
"K  c #483323",
"L  c #593827",
"P  c #483835",
"I  c #583636",
"U  c #522B29",
"Y  c #65392B",
"T  c #773137",
"R  c #2C413C",
"E  c #24442B",
"W  c #48491B",
"Q  c #53450E",
"!  c #6A4100",
"~  c #774805",
"^  c #664215",
"/  c #7A4718",
"(  c #78570E",
")  c #56442A",
"_  c #584738",
"`  c #55593F",
"'  c #4B5234",
"]  c #784724",
"[  c #6B493C",
"{  c #6C512D",
"}  c #102F46",
"|  c #3A3641",
" . c #4E3745",
".. c #5E3749",
"X. c #365755",
"o. c #334D4F",
"O. c #365975",
"+. c #3B666F",
"@. c #3D6356",
"#. c #555148",
"$. c #4C4851",
"%. c #595657",
"&. c #514E4A",
"*. c #79494B",
"=. c #695B48",
"-. c #6D5153",
";. c #485768",
":. c #645B68",
">. c #4C6B70",
",. c #506345",
"<. c #840E03",
"1. c #A7160F",
"2. c #872800",
"3. c #912800",
"4. c #893311",
"5. c #A0281A",
"6. c #913134",
"7. c #AA2F25",
"8. c #A5112E",
"9. c #DE0032",
"0. c #C13E32",
"q. c #984600",
"w. c #8E5617",
"e. c #92500D",
"r. c #A95012",
"t. c #92641C",
"y. c #B56B11",
"u. c #865C26",
"i. c #975A27",
"p. c #985936",
"a. c #964E30",
"s. c #AA5436",
"d. c #97652B",
"f. c #8B7135",
"g. c #B27532",
"h. c #DC5C39",
"j. c #CB7438",
"k. c #D37918",
"l. c #973E42",
"z. c #D02F4E",
"x. c #EA2347",
"c. c #865946",
"v. c #A7754A",
"b. c #56867D",
"n. c #B78314",
"m. c #B78B2B",
"M. c #CC851E",
"N. c #D0980D",
"B. c #E68B1E",
"V. c #D38827",
"C. c #DA9726",
"Z. c #C08A35",
"A. c #DD8739",
"S. c #D89435",
"D. c #C78D2D",
"F. c #E58B25",
"G. c #E6993A",
"H. c #ED9632",
"J. c #F3A23B",
"K. c #CAA53B",
"L. c #B18F54",
"P. c #979265",
"I. c #A79978",
"U. c #ACA972",
"Y. c #8E854A",
"T. c #C68D4E",
"R. c #D88B47",
"E. c #D89746",
"W. c #C99254",
"Q. c #D99B54",
"!. c #CD8F51",
"~. c #E89A47",
"^. c #E89251",
"/. c #D4AA54",
"(. c #EBA759",
"). c #F9B858",
"_. c #EAA850",
"`. c #CCBB77",
"'. c #D9B469",
"]. c #EFB079",
"[. c #D18C62",
"{. c #3779AA",
"}. c #346A8E",
"|. c #4C7A95",
" X c #63769E",
".X c #4D7DB8",
"XX c #4C76A4",
"oX c #3A889B",
"OX c #3A9598",
"+X c #3DA29A",
"@X c #3985A7",
"#X c #3996AA",
"$X c #3C8AB2",
"%X c #3C94B4",
"&X c #2E83A8",
"*X c #3CA0B0",
"=X c #578B8D",
"-X c #46899C",
";X c #588797",
":X c #46939E",
">X c #53928B",
",X c #688D95",
"<X c #4789A6",
"1X c #5889A7",
"2X c #4C94A4",
"3X c #4698A9",
"4X c #5693AA",
"5X c #4B8AB5",
"6X c #4789B8",
"7X c #5589B8",
"8X c #4C93B4",
"9X c #4797B8",
"0X c #5798B8",
"qX c #6887A5",
"wX c #6395A5",
"eX c #628CBF",
"rX c #6697B7",
"tX c #7394BD",
"yX c #49A0AE",
"uX c #66A3AB",
"iX c #6FA4AD",
"pX c #69A293",
"aX c #3B8AC2",
"sX c #4889C5",
"dX c #598AC4",
"fX c #5695C7",
"gX c #4A90C9",
"hX c #6997C8",
"jX c #5FA1D1",
"kX c #6CACCF",
"lX c #898E8C",
"zX c #B1948B",
"xX c #92A293",
"cX c #B9AA88",
"vX c #BBAF91",
"bX c #D7B18F",
"nX c #CBAFA2",
"mX c #EABF8C",
"MX c #D2CB95",
"NX c #D8D5AA",
"BX c #E7DBAA",
"VX c #E5D9B4",
"CX c #F7E1BA",
"ZX c #E5E2BA",
"AX c #F0D19A",
"SX c #F5DBD0",
"DX c #EAE8CA",
"FX c #F7E7C6",
"GX c #FAE6D7",
"HX c #FFF7DB",
"JX c #F1F3CE",
"KX c #DDF4E0",
"LX c #FCE8E7",
"PX c #EAF3E0",
"IX c #F3FCF3",
"UX c #D3E1D3",
/* pixels */
"7X{.fX6XoX*XoX%XgX9XoX-X>X=X0X1XpXpXwX;XqX1XdX.XdXsX3X%X$X%X3XOX",
"5X6XgX@X@X9X@X$X6X<XuX>X>X+.} } e t t +.|.1XXXeX.X5XoX*X%X%X*X:X",
"{.5X<XoX8X9X$X6X7XwX>.@.E X.@.o o o o e % } ,X=XwX|.fX&XfX9XoX2X",
"-X<X-X3X8X@X6XeXqXX.1 xXJXKXKXIXR   pXUXIXxX  @.,X,X0X$X9X8X2X4X",
"6X<X:X:X<X5XhX X$.8 BXJXHXDXDXDXLXlXIXPXPXPXNX5 ' ,X}.jX@X2XrX1X",
"sX8X:XoX-XrXqX;.K L.g.t.u.CXDXGXSXIXDXDXFXBX( f.` ,. X7X9X8X1X<X",
"gXsX3XoX4X,X$.P mXQ.~.S.]./ FXLXLXSXLXCXBXN m.K.L.9 qXXXfX8X<X<X",
"sXsX6X<XiX@.X L w.G.J.J.E.w.bXSXLXSXSXJX( D.G.M.Q.u.a tX5X{.0X<X",
"sXsX6X1X-XX $ ^ 4.g y.H.G.R.v.GXGXGXBXAX~ V.F.F.4.] * } hX$X0XoX",
"6XsX6X1Xo.X 6 ^ j c q.2.M.E.S SXGXDXCXf.V.F.B.3.v j < % XX5XyX#X",
"<X8X5X|.e & #.Y d a.2.q.y.E.g.bXFXVXCX~ M.H.3.x r.s ,   O.fX%X#X",
"-X;X1X+.y 2 -.J *.s a.T.).E.[.L.ZXZXbXS J.k.^.^.s.j Y . } 0X#X#X",
"2X;XwXt u o :.q q I L A A W.!.u.BXMXW.t.S.~.r.A D Y [ * o |.0X%X",
"2X4X,X0 u   :.$.| $._ 8 N M !.L.NXMXt.~.j.j 4.c.J K B 8   O.0XsX",
"7X7X>.3 2 @ :.:.* o &._ 6 D C A `.CX~ D.2.s.V + i > , 8 7 o.1XsX",
"dX1X@.r   & %.$.a   . 8 -.L m : cXMX~ e.S s - +   7 #., > | rX6X",
"-XuXX.3 2   %.%.#.8 G = & p ' 5 P.MXQ h s = - I $ ,.$.w q a 4XOX",
":XuXt & X . #.-.=._ k *.<   7 W U.U.. @ O [ *.B ' =.P w  .a -X+X",
"2X,Xa p . . G l ; 8 -.J ..q X 2 cXVX1 i K 8 > &.) L G l < e :X*X",
"0X1X| J . O T T ^ 6 , I ..-.%.a vXcX$ #.=._ %.p - F l.T * t 0X&X",
"7XqX .8 @ = c.p.p.w.T s I @ p P zXnX) =.h - l H s.<.v F = 0 rXdX",
"1XqX` 8 + $ { d.C c 5.6.- U , P zXnX> [ j b f 6.x h.j.h O r |.fX",
"4X=X9 9 # 1 u.(.G.V.f v 0.5.- i zXvXa _ f z.l.<.h.2.i.d.# t kXaX",
"2Xb.1 Q # 1 ! G.F.H.Z f 1.0.: i nXzXr i x 8.5.a.z A.Q.N X r -XgX",
"+X>X9 4 5 W m /.H.F.j.v v 7.k U I.vXu P <.7.C - m.S.R.d 4 2 iXwX",
"uXb.9 Q 4 4 : K.C.H.Q.c v Z H U P.MX1 ) x 5.M N C.M.g.- m O I $.",
":.7 $ { O = ^ t._._.T.g v F I 8 vXNXK *.f 4.A ( G.V.! : j j n n ",
"q I : Y , , N ( E.Q.W.s b d _ u P.I.K *.- D D ( E.Q.; 6 ; f z.x.",
"s Y j D - 4 W Q _.~.Q.s a.h =.2 u i > =.h D { D [.p.+ u ' - z.9.",
"s.j h A O @ W @ e.y.q.f c d 5 1 9 + ; Q : h u.g S - = 8 5 - 7.x.",
"d.~ V ( i.f.Y.f.A y.r.j.2.w.^ Y.`.W.T.D.y.n.(.R.^.q.w.T.Z.Z.c z ",
"(.'./.`.].'.`.`._.).).).].].L.'.'./.G.C.N.N.~.~.j.A.(.S.D.C.m.K."
};
